<svg id="Layer_1" data-name="Layer 1" xmlns="http://www.w3.org/2000/svg" viewBox="0 0 630 473"><defs><style>.cls-1,.cls-29,.cls-4{font-size:16px;}.cls-1,.cls-11,.cls-29,.cls-4{fill:#1d1d1b;}.cls-1,.cls-29{font-family:NTA-Light, NTA;}.cls-2{letter-spacing:-0.01em;}.cls-3{letter-spacing:-0.03em;}.cls-4{font-family:NTA-Bold, NTA;font-weight:700;letter-spacing:-0.03em;}.cls-5{letter-spacing:-0.01em;}.cls-6{letter-spacing:-0.02em;}.cls-7{letter-spacing:-0.02em;}.cls-8{letter-spacing:-0.01em;}.cls-9{letter-spacing:-0.01em;}.cls-10,.cls-12{fill:none;}.cls-10,.cls-12,.cls-14,.cls-31{stroke:#1d1d1b;stroke-miterlimit:10;}.cls-10{stroke-dasharray:2 2;}.cls-13,.cls-31{fill:#e8e6e6;}.cls-14{fill:#fff;}.cls-15{letter-spacing:-0.02em;}.cls-16{letter-spacing:-0.05em;}.cls-17{letter-spacing:-0.01em;}.cls-18{letter-spacing:0em;}.cls-19{letter-spacing:-0.01em;}.cls-20{letter-spacing:-0.05em;}.cls-21{letter-spacing:-0.02em;}.cls-22{letter-spacing:-0.05em;}.cls-23{letter-spacing:0em;}.cls-24{letter-spacing:0em;}.cls-25{letter-spacing:-0.01em;}.cls-26{letter-spacing:-0.01em;}.cls-27{letter-spacing:-0.08em;}.cls-28{letter-spacing:-0.01em;}.cls-29{letter-spacing:-0.02em;}.cls-30{letter-spacing:-0.01em;}</style></defs><title>verify-tech-diagram</title><text class="cls-1" transform="translate(14.76 338.7)"><tspan class="cls-2">S</tspan><tspan x="9.62" y="0">AM</tspan><tspan class="cls-3" x="33.41" y="0">L</tspan></text><text class="cls-4" transform="translate(14.76 303.03)">K<tspan class="cls-5" x="10.08" y="0">e</tspan><tspan class="cls-6" x="18.96" y="0">y</tspan></text><text class="cls-1" transform="translate(14.76 424.5)"><tspan class="cls-7">S</tspan><tspan x="9.46" y="0">tep</tspan></text><text class="cls-1" transform="translate(14.76 382.58)"><tspan class="cls-8">N</tspan><tspan x="12.19" y="0">on-</tspan><tspan class="cls-9" x="35.7" y="0">S</tspan><tspan x="45.31" y="0">AM</tspan><tspan class="cls-3" x="69.1" y="0">L</tspan></text><line class="cls-10" x1="15.16" y1="391.73" x2="102.11" y2="391.73"/><polygon class="cls-11" points="100.65 396.71 109.29 391.73 100.65 386.74 100.65 396.71"/><line class="cls-12" x1="15.16" y1="349.96" x2="102.11" y2="349.96"/><polygon class="cls-11" points="100.65 354.95 109.29 349.96 100.65 344.98 100.65 354.95"/><rect id="service_background" data-name="service background" class="cls-13" x="138.54" y="15" width="301.82" height="443"/><rect id="verify" class="cls-14" x="504.44" y="15.48" width="109.8" height="442.04"/><rect id="match_verified_identities" data-name="match verified identities" class="cls-14" x="276.06" y="237.49" width="148.94" height="206.88"/><rect id="your_service" data-name="your service" class="cls-14" x="153.12" y="30.29" width="271.89" height="75.55"/><rect id="verify_service_provider" data-name="verify service provider" class="cls-14" x="276.06" y="157.53" width="148.94" height="52.8"/><text class="cls-1" transform="translate(527.67 232.54)">G<tspan class="cls-15" x="11.28" y="0">O</tspan><tspan class="cls-16" x="22.72" y="0">V</tspan><tspan class="cls-17" x="31.57" y="0">.</tspan><tspan class="cls-18" x="35.71" y="0">U</tspan><tspan class="cls-19" x="46.99" y="0">K</tspan><tspan class="cls-18" x="57.01" y="0"> </tspan><tspan class="cls-20" x="8.66" y="16">V</tspan><tspan x="17.61" y="16">erif</tspan><tspan class="cls-21" x="41.06" y="16">y</tspan><tspan class="cls-18" x="48.34" y="16"> </tspan></text><path class="cls-14" d="M156.12,357.51v67.06c0,10.94,15,19.8,33.44,19.8S223,435.51,223,424.57V357.51Z"/><ellipse class="cls-14" cx="189.56" cy="356.21" rx="33.44" ry="15.51"/><text class="cls-1" transform="translate(302.08 181.12)"><tspan class="cls-22">V</tspan><tspan x="8.94" y="0">erif</tspan><tspan class="cls-6" x="32.4" y="0">y</tspan><tspan class="cls-23" x="39.68" y="0" xml:space="preserve"> Servi</tspan><tspan class="cls-24" x="79.57" y="0">c</tspan><tspan x="87.82" y="0">e</tspan><tspan class="cls-25"><tspan x="18.87" y="16">P</tspan><tspan class="cls-26" x="28.41" y="16">r</tspan><tspan class="cls-2" x="33.99" y="16">o</tspan><tspan class="cls-23" x="42.79" y="16">vide</tspan><tspan class="cls-6" x="72.07" y="16">r</tspan></tspan></text><text class="cls-1" transform="translate(275.61 64.99)"><tspan class="cls-27">Y</tspan><tspan x="8.22" y="0">ou</tspan><tspan class="cls-6" x="26" y="0">r</tspan><tspan x="-9.41" y="16">servi</tspan><tspan class="cls-28" x="24.03" y="16">c</tspan><tspan x="32.29" y="16">e</tspan></text><text class="cls-1" transform="translate(172.78 392.41)"><tspan class="cls-27">Y</tspan><tspan x="8.22" y="0">ou</tspan><tspan class="cls-6" x="26" y="0">r</tspan><tspan x="-0.1" y="16">data</tspan><tspan x="-2.62" y="32">sto</tspan><tspan class="cls-26" x="19.92" y="32">r</tspan><tspan x="25.5" y="32">e</tspan></text><text class="cls-29" transform="translate(14.54 98.72)">U<tspan class="cls-18" x="11.04" y="0">se</tspan><tspan class="cls-6" x="27.1" y="0">r</tspan></text><text class="cls-1" transform="translate(324.69 330.26)"><tspan class="cls-30">M<tspan class="cls-23" x="13.54" y="0">atch </tspan></tspan><tspan class="cls-9" x="-3.81" y="16">v</tspan><tspan x="3.76" y="16">erified </tspan><tspan x="-8.58" y="32">identities</tspan></text><line class="cls-10" x1="316.22" y1="106.83" x2="316.22" y2="150.36"/><polygon class="cls-11" points="311.24 148.9 316.22 157.53 321.21 148.9 311.24 148.9"/><line class="cls-10" x1="386.03" y1="157.53" x2="386.03" y2="113.01"/><polygon class="cls-11" points="391.02 114.47 386.03 105.83 381.05 114.47 391.02 114.47"/><line class="cls-10" x1="276.06" y1="386.19" x2="230.18" y2="386.19"/><polygon class="cls-11" points="231.63 381.21 223 386.19 231.63 391.18 231.63 381.21"/><line class="cls-10" x1="223" y1="407.55" x2="268.89" y2="407.55"/><polygon class="cls-11" points="267.43 412.53 276.06 407.55 267.43 402.56 267.43 412.53"/><line class="cls-10" x1="190.08" y1="105.95" x2="190.08" y2="332.97"/><polygon class="cls-11" points="185.09 331.51 190.08 340.14 195.06 331.51 185.09 331.51"/><line class="cls-12" x1="426.42" y1="321.22" x2="504.44" y2="321.22"/><polyline class="cls-12" points="368.19 157.53 368.19 89 504.44 89"/><polyline class="cls-12" points="336.7 157.53 336.7 49.77 504.32 49.77"/><line class="cls-12" x1="504.44" y1="283.94" x2="425.01" y2="283.94"/><line class="cls-12" x1="492.65" y1="49.69" x2="496.55" y2="49.69"/><polygon class="cls-11" points="495.09 54.68 503.73 49.69 495.09 44.71 495.09 54.68"/><polygon class="cls-11" points="363.48 148.83 368.46 157.47 373.45 148.83 363.48 148.83"/><line class="cls-12" x1="443.34" y1="321.22" x2="432.46" y2="321.22"/><polygon class="cls-11" points="433.92 316.23 425.28 321.21 433.92 326.2 433.92 316.23"/><circle class="cls-31" cx="315.82" cy="130.89" r="11.54"/><text class="cls-1" transform="translate(310.48 136.06)">2</text><circle class="cls-31" cx="386.63" cy="130.89" r="11.54"/><text class="cls-1" transform="translate(382.73 136.06)">7</text><circle class="cls-31" cx="190.08" cy="224.05" r="11.54"/><text class="cls-1" transform="translate(185.53 228.93)">8</text><circle class="cls-12" cx="27.97" cy="446.14" r="11.54"/><text class="cls-1" transform="translate(25.48 451.03)">1</text><circle class="cls-14" cx="471.33" cy="283.94" r="11.54"/><text class="cls-1" transform="translate(466.88 288.78) rotate(0.19)">5</text><circle class="cls-14" cx="471.33" cy="319.42" r="11.54"/><text class="cls-1" transform="translate(466.13 324.02) rotate(0.19)">4</text><circle class="cls-14" cx="471.33" cy="49.69" r="11.54"/><text class="cls-1" transform="translate(466.81 53.54) rotate(0.19)">3</text><circle class="cls-14" cx="471.33" cy="90.18" r="11.54"/><text class="cls-1" transform="translate(466.25 94.78) rotate(0.19)">6</text><path class="cls-11" d="M30.77,80.21H17.13a1.46,1.46,0,0,1-1.61-1.15,2.15,2.15,0,0,1,.11-1.12,16.12,16.12,0,0,1,10-9.66,1.45,1.45,0,0,1,1.1,0,10,10,0,0,0,8.11,0,1.45,1.45,0,0,1,1.12,0,16.15,16.15,0,0,1,10,9.82,1.53,1.53,0,0,1-1.36,2.09H30.77Z"/><path class="cls-11" d="M30.69,66.8a8.52,8.52,0,1,1,8.62-8.54A8.49,8.49,0,0,1,30.69,66.8Z"/><line class="cls-10" x1="55.97" y1="68.56" x2="145.94" y2="68.56"/><polygon class="cls-11" points="144.49 73.54 153.12 68.56 144.49 63.57 144.49 73.54"/><circle class="cls-14" cx="101.08" cy="68.56" r="11.54"/><text class="cls-1" transform="translate(98.58 73.73)">1</text><polygon class="cls-11" points="494.59 288.92 503.22 283.94 494.59 278.95 494.59 288.92"/></svg>