<svg id="Layer_1" data-name="Layer 1" xmlns="http://www.w3.org/2000/svg" viewBox="0 0 630 473"><defs><style>.cls-1{fill:#1d1d1b;}.cls-2,.cls-3{fill:none;}.cls-2,.cls-3,.cls-5,.cls-8{stroke:#1d1d1b;stroke-miterlimit:10;}.cls-2{stroke-dasharray:2 2;}.cls-4,.cls-8{fill:#e8e6e6;}.cls-5,.cls-7{fill:#fff;}.cls-6{fill:#055fa6;}</style></defs><title>verify-build</title><path class="cls-1" d="M16.58,336.2a4.08,4.08,0,0,0,3.17,1.47c1.36,0,2.55-.68,2.55-2a1.61,1.61,0,0,0-1.06-1.57c-1.12-.53-2.86-.56-4.06-1.3a2.55,2.55,0,0,1-1.32-2.33c0-1.73,1.44-3.11,3.83-3.11a5.11,5.11,0,0,1,3.7,1.52l-1,.82a3.66,3.66,0,0,0-2.69-1.16c-1.36,0-2.43.68-2.43,1.88,0,1.82,2.64,1.61,4.57,2.46a2.76,2.76,0,0,1,1.88,2.66c0,2.22-2,3.33-4.07,3.33a5.41,5.41,0,0,1-4.1-1.75Z"/><path class="cls-1" d="M31.66,336.17h-4.5l-.74,2.53H25l3.47-11.21h2l3.51,11.21H32.41ZM27.5,335h3.82l-1.86-6.27h-.12Z"/><path class="cls-1" d="M44.84,327.49h1.71V338.7H45.16v-9.51l-3.82,5.15h0l-3.81-5.12v9.48H36.12V327.49h1.71l3.51,4.76Z"/><path class="cls-1" d="M49.78,327.49h1.38v10h4.48v1.23H49.78Z"/><path class="cls-1" d="M16,296.83h2.27v4.85l4-4.85h2.79l-3.89,4.45L25.32,308H22.68l-3-5-1.44,1.62V308H16Z"/><path class="cls-1" d="M27.66,304.59a2,2,0,0,0,2,1.64,3,3,0,0,0,2.11-.79l1.07,1.63a5,5,0,0,1-3.25,1.13,4.08,4.08,0,0,1-4.21-4.29v-.1a4.05,4.05,0,0,1,4.05-4.31,3.84,3.84,0,0,1,3.85,4.12v1Zm0-1.63h3.38a1.61,1.61,0,0,0-1.65-1.58A1.67,1.67,0,0,0,27.67,303Z"/><path class="cls-1" d="M36.55,308.37l.06-.27h-.15l-2.58-8.44h2.4l1.54,5.8,1.5-5.8h2.37l-2.88,9.61c-.37,1.25-1.35,1.58-2.61,1.58a13.63,13.63,0,0,1-2-.16l.45-1.9a8.24,8.24,0,0,0,1.15.09A.63.63,0,0,0,36.55,308.37Z"/><path class="cls-1" d="M16.58,422a4.11,4.11,0,0,0,3.17,1.47c1.36,0,2.55-.69,2.55-2a1.6,1.6,0,0,0-1.06-1.56c-1.12-.53-2.86-.57-4.06-1.3a2.57,2.57,0,0,1-1.32-2.34c0-1.73,1.44-3.1,3.83-3.1a5.07,5.07,0,0,1,3.7,1.52l-1,.81a3.69,3.69,0,0,0-2.69-1.15c-1.36,0-2.43.67-2.43,1.87,0,1.83,2.64,1.62,4.57,2.47a2.75,2.75,0,0,1,1.88,2.66c0,2.22-2,3.33-4.07,3.33a5.41,5.41,0,0,1-4.1-1.75Z"/><path class="cls-1" d="M27.56,422.52c0,.53.1,1,1,1a6.78,6.78,0,0,0,1-.1l.14,1.15a10.94,10.94,0,0,1-1.42.12c-1.27,0-2.05-.5-2.05-1.86v-5.14H24.74v-1.15h1.51v-2.61l1.31-.47v3.08h2.22v1.15H27.56Z"/><path class="cls-1" d="M32.46,420.92a2.51,2.51,0,0,0,2.48,2.59,3.18,3.18,0,0,0,2.09-.78l.68.94a4.48,4.48,0,0,1-2.84,1c-2.32,0-3.79-1.75-3.79-4.15s1.42-4.16,3.63-4.16,3.41,1.74,3.41,4.14v.42Zm0-1.06H36.7c-.05-1.23-.74-2.35-2-2.35A2.33,2.33,0,0,0,32.47,419.86Z"/><path class="cls-1" d="M41.42,416.52v.91a2.77,2.77,0,0,1,2.33-1.07c2.07,0,3.4,1.74,3.4,4.16s-1.33,4.15-3.4,4.15a2.78,2.78,0,0,1-2.33-1.08v3.35H40.1V416.52Zm4.37,4c0-1.66-.81-2.94-2.28-2.94a2.08,2.08,0,0,0-2.11,2.33v1.3a2.08,2.08,0,0,0,2.11,2.34c1.47,0,2.28-1.28,2.28-2.95Z"/><path class="cls-1" d="M17.72,372.85v9.73H16.38v-11.2h2l5.81,9.23v-9.23h1.34v11.2H23.83Z"/><path class="cls-1" d="M35.11,378.6c0,2.4-1.47,4.14-3.68,4.14s-3.68-1.74-3.68-4.14,1.47-4.17,3.68-4.17S35.11,376.16,35.11,378.6Zm-1.36,0v-.09c0-1.6-.8-3-2.32-3s-2.32,1.36-2.32,3v.09c0,1.57.8,2.95,2.32,2.95S33.75,380.21,33.75,378.64Z"/><path class="cls-1" d="M37.19,374.59H38.5v.92a2.76,2.76,0,0,1,2.34-1.08,2.55,2.55,0,0,1,2.67,2.73v5.42H42.2v-5c0-1.41-.72-1.93-1.65-1.93a2.05,2.05,0,0,0-2,2.2v4.74H37.19Z"/><path class="cls-1" d="M45.91,377.3h3.36v1.25H45.91Z"/><path class="cls-1" d="M52.28,380.08a4.07,4.07,0,0,0,3.17,1.48c1.36,0,2.54-.69,2.54-2A1.63,1.63,0,0,0,56.94,378c-1.12-.53-2.87-.56-4.07-1.29a2.57,2.57,0,0,1-1.31-2.34c0-1.73,1.44-3.11,3.82-3.11a5.09,5.09,0,0,1,3.7,1.52l-1,.82a3.69,3.69,0,0,0-2.69-1.15c-1.36,0-2.43.67-2.43,1.87,0,1.83,2.64,1.62,4.58,2.47a2.73,2.73,0,0,1,1.87,2.65c0,2.23-2,3.33-4.06,3.33a5.39,5.39,0,0,1-4.1-1.74Z"/><path class="cls-1" d="M67.35,380.05H62.86l-.74,2.53H60.66l3.48-11.2h2l3.51,11.2H68.11Zm-4.16-1.17H67l-1.86-6.27H65Z"/><path class="cls-1" d="M80.54,371.38h1.71v11.2H80.86v-9.51L77,378.23h0l-3.81-5.12v9.47h-1.4v-11.2h1.72l3.5,4.75Z"/><path class="cls-1" d="M85.48,371.38h1.37v10h4.49v1.23H85.48Z"/><line class="cls-2" x1="15.16" y1="391.73" x2="102.11" y2="391.73"/><polygon class="cls-1" points="100.65 396.71 109.29 391.73 100.65 386.74 100.65 396.71"/><line class="cls-3" x1="15.16" y1="349.96" x2="102.11" y2="349.96"/><polygon class="cls-1" points="100.65 354.95 109.29 349.96 100.65 344.98 100.65 354.95"/><rect id="service_background" data-name="service background" class="cls-4" x="138.54" y="15" width="301.82" height="443"/><rect id="verify" class="cls-5" x="504.44" y="15.48" width="109.8" height="442.04"/><rect id="match_verified_identities" data-name="match verified identities" class="cls-5" x="276.06" y="237.49" width="148.94" height="206.88"/><rect id="your_service" data-name="your service" class="cls-5" x="153.12" y="30.29" width="271.89" height="75.55"/><rect id="verify_service_provider" data-name="verify service provider" class="cls-6" x="276.06" y="157.53" width="148.94" height="52.8"/><path class="cls-1" d="M536.55,228.33v-.56h-3.14v-1.15h4.37v5.92h-1.24V231a3.4,3.4,0,0,1-3.11,1.66c-3.06,0-4.8-2.53-4.8-5.75s1.86-5.76,4.88-5.76a4.63,4.63,0,0,1,4.13,2.32l-1.17.61a3.11,3.11,0,0,0-3-1.73c-2.34,0-3.43,2.13-3.43,4.45v.21c0,2.32,1.11,4.45,3.45,4.45A2.9,2.9,0,0,0,536.55,228.33Z"/><path class="cls-1" d="M544.81,221.19c3,0,4.89,2.55,4.89,5.76s-1.87,5.75-4.89,5.75-4.9-2.53-4.9-5.75S541.78,221.19,544.81,221.19Zm3.44,5.65c0-2.32-1-4.45-3.44-4.45s-3.44,2.13-3.44,4.45v.21c0,2.32,1,4.45,3.44,4.45s3.44-2.13,3.44-4.45Z"/><path class="cls-1" d="M554.33,232.54l-3.3-11.2h1.47l2.74,9.92,2.75-9.92h1.47l-3.28,11.2Z"/><path class="cls-1" d="M561.41,230.56a1.07,1.07,0,1,1-1.07,1.07A1.08,1.08,0,0,1,561.41,230.56Z"/><path class="cls-1" d="M571.82,228.55v-7.21h1.34v7.34a4.14,4.14,0,0,1-8.28,0v-7.34h1.37v7.21a2.79,2.79,0,1,0,5.57,0Z"/><path class="cls-1" d="M576.28,221.34h1.37v6l4.85-6h1.68l-3.66,4.41,4,6.79h-1.62l-3.34-5.78-1.94,2.4v3.38h-1.37Z"/><path class="cls-1" d="M540.27,248.54l-3.3-11.2h1.48l2.73,9.92,2.76-9.92h1.47l-3.28,11.2Z"/><path class="cls-1" d="M547.45,245a2.51,2.51,0,0,0,2.48,2.59,3.2,3.2,0,0,0,2.1-.79l.67,1a4.48,4.48,0,0,1-2.83,1c-2.32,0-3.79-1.74-3.79-4.15s1.42-4.16,3.63-4.16,3.41,1.75,3.41,4.15V245Zm0-1.06h4.22a2.15,2.15,0,0,0-2-2.35A2.32,2.32,0,0,0,547.47,243.9Z"/><path class="cls-1" d="M559.18,241.72H559c-1.34,0-2.56.55-2.56,2.72v4.1H555.1v-8h1.31v1.27a2.49,2.49,0,0,1,2.39-1.41h.38Z"/><path class="cls-1" d="M561.55,237.34a1,1,0,1,1-1,1A1,1,0,0,1,561.55,237.34Zm.64,11.2h-1.31v-8h1.31Z"/><path class="cls-1" d="M566.62,240.55h1.59v1.16h-1.59v6.83h-1.31v-6.83H564v-1.16h1.33v-1.49c0-1.37.93-1.87,2.19-1.87a7.75,7.75,0,0,1,1.28.11l-.09,1.12c-.31,0-.88-.06-1.14-.06a.84.84,0,0,0-.93,1Z"/><path class="cls-1" d="M569.13,240.55h1.49l2,6.6,1.87-6.6h1.47L573,249.74a1.92,1.92,0,0,1-2.11,1.41,9.6,9.6,0,0,1-1.43-.13l.2-1.15a6.1,6.1,0,0,0,1.05.11.9.9,0,0,0,1-.8l.08-.37Z"/><path class="cls-5" d="M156.12,357.51v67.06c0,10.94,15,19.8,33.44,19.8S223,435.51,223,424.57V357.51Z"/><ellipse class="cls-5" cx="189.56" cy="356.21" rx="33.44" ry="15.51"/><path class="cls-7" d="M306,181.12l-3.3-11.2h1.48l2.73,9.92,2.76-9.92h1.47l-3.28,11.2Z"/><path class="cls-7" d="M313.2,177.54a2.52,2.52,0,0,0,2.49,2.59,3.18,3.18,0,0,0,2.09-.78l.67.94a4.42,4.42,0,0,1-2.83,1c-2.32,0-3.79-1.74-3.79-4.14s1.42-4.16,3.63-4.16,3.41,1.74,3.41,4.14v.42Zm0-1.06h4.23c-.05-1.23-.74-2.35-2-2.35A2.32,2.32,0,0,0,313.22,176.48Z"/><path class="cls-7" d="M324.93,174.31h-.2c-1.35,0-2.56.54-2.56,2.72v4.09h-1.32v-8h1.32v1.26a2.48,2.48,0,0,1,2.38-1.41h.38Z"/><path class="cls-7" d="M327.3,169.92a1,1,0,0,1,1,1,1,1,0,0,1-1,1,1,1,0,0,1-1-1A1,1,0,0,1,327.3,169.92Zm.64,11.2h-1.31v-8h1.31Z"/><path class="cls-7" d="M332.37,173.14H334v1.15h-1.59v6.83h-1.31v-6.83h-1.33v-1.15h1.33v-1.49c0-1.38.93-1.87,2.19-1.87a7.63,7.63,0,0,1,1.28.11l-.09,1.12c-.31,0-.88-.07-1.14-.07a.84.84,0,0,0-.93,1Z"/><path class="cls-7" d="M334.88,173.14h1.49l2,6.59,1.87-6.59h1.48l-2.92,9.19a1.91,1.91,0,0,1-2.11,1.4,9.27,9.27,0,0,1-1.42-.12l.19-1.16a6.1,6.1,0,0,0,1.05.11.9.9,0,0,0,1-.8l.08-.36Z"/><path class="cls-7" d="M347.78,178.63A4.09,4.09,0,0,0,351,180.1c1.36,0,2.54-.69,2.54-2a1.63,1.63,0,0,0-1.05-1.57c-1.12-.52-2.87-.56-4.07-1.29a2.56,2.56,0,0,1-1.31-2.34c0-1.73,1.44-3.1,3.82-3.1a5,5,0,0,1,3.7,1.52l-1,.81a3.67,3.67,0,0,0-2.69-1.15c-1.36,0-2.43.67-2.43,1.87,0,1.83,2.64,1.62,4.58,2.47A2.74,2.74,0,0,1,354.9,178c0,2.22-2,3.32-4.06,3.32a5.39,5.39,0,0,1-4.1-1.74Z"/><path class="cls-7" d="M357.91,177.54a2.51,2.51,0,0,0,2.48,2.59,3.21,3.21,0,0,0,2.1-.78l.67.94a4.45,4.45,0,0,1-2.84,1c-2.32,0-3.79-1.74-3.79-4.14S358,173,360.16,173s3.41,1.74,3.41,4.14v.42Zm0-1.06h4.23c0-1.23-.74-2.35-2-2.35A2.33,2.33,0,0,0,357.92,176.48Z"/><path class="cls-7" d="M369.64,174.31h-.21c-1.35,0-2.56.54-2.56,2.72v4.09h-1.32v-8h1.32v1.26a2.49,2.49,0,0,1,2.38-1.41h.39Z"/><path class="cls-7" d="M373,181.12l-2.53-8H372l1.92,6.77,1.91-6.77h1.49l-2.53,8Z"/><path class="cls-7" d="M379.73,169.92a1,1,0,0,1,1,1,1,1,0,0,1-1,1,1,1,0,0,1-1-1A1,1,0,0,1,379.73,169.92Zm.64,11.2h-1.31v-8h1.31Z"/><path class="cls-7" d="M383.81,177.17c0,1.6.79,3,2.32,3a2.29,2.29,0,0,0,2.07-1.34l1.09.62a3.4,3.4,0,0,1-3.16,1.87c-2.21,0-3.68-1.72-3.68-4.14s1.47-4.16,3.68-4.16a3.4,3.4,0,0,1,3.16,1.87l-1.09.62a2.29,2.29,0,0,0-2.07-1.34c-1.53,0-2.32,1.36-2.32,3Z"/><path class="cls-7" d="M392.08,177.54a2.51,2.51,0,0,0,2.48,2.59,3.19,3.19,0,0,0,2.1-.78l.67.94a4.42,4.42,0,0,1-2.83,1c-2.32,0-3.79-1.74-3.79-4.14s1.42-4.16,3.63-4.16,3.41,1.74,3.41,4.14v.42Zm0-1.06h4.23c-.05-1.23-.74-2.35-2-2.35A2.32,2.32,0,0,0,392.1,176.48Z"/><path class="cls-7" d="M322.57,185.92h3.94a3.32,3.32,0,0,1,3.47,3.52,3.42,3.42,0,0,1-3.63,3.51H324v4.17h-1.38Zm3.65,1.18H324v4.66h2.27a2.16,2.16,0,0,0,2.31-2.27v-.08A2.19,2.19,0,0,0,326.22,187.1Z"/><path class="cls-7" d="M335.85,190.31h-.2c-1.35,0-2.57.54-2.57,2.72v4.09h-1.31v-8h1.31v1.26a2.5,2.5,0,0,1,2.39-1.41h.38Z"/><path class="cls-7" d="M344.24,193.14c0,2.4-1.47,4.14-3.68,4.14s-3.68-1.74-3.68-4.14,1.47-4.16,3.68-4.16S344.24,190.71,344.24,193.14Zm-1.36.05v-.1c0-1.6-.8-3-2.32-3s-2.32,1.36-2.32,3v.1c0,1.56.8,2.94,2.32,2.94S342.88,194.75,342.88,193.19Z"/><path class="cls-7" d="M347.87,197.12l-2.53-8h1.49l1.92,6.77,1.9-6.77h1.49l-2.53,8Z"/><path class="cls-7" d="M354.56,185.92a1,1,0,0,1,1,1,1,1,0,1,1-1.94,0A1,1,0,0,1,354.56,185.92Zm.64,11.2h-1.32v-8h1.32Z"/><path class="cls-7" d="M363,196.21a2.78,2.78,0,0,1-2.34,1.07c-2.06,0-3.39-1.72-3.39-4.14s1.33-4.16,3.39-4.16a2.78,2.78,0,0,1,2.34,1.07v-4.13h1.31v11.2H363Zm-4.37-3c0,1.66.8,3,2.27,3a2.08,2.08,0,0,0,2.12-2.34v-1.3a2.08,2.08,0,0,0-2.12-2.33c-1.47,0-2.27,1.28-2.27,2.94Z"/><path class="cls-7" d="M367.79,193.54a2.51,2.51,0,0,0,2.48,2.59,3.19,3.19,0,0,0,2.1-.78l.67.94a4.44,4.44,0,0,1-2.83,1c-2.33,0-3.8-1.74-3.8-4.14S367.84,189,370,189s3.41,1.74,3.41,4.14v.42Zm0-1.06H372c0-1.23-.74-2.35-2-2.35A2.33,2.33,0,0,0,367.8,192.48Z"/><path class="cls-7" d="M379.52,190.31h-.21c-1.35,0-2.56.54-2.56,2.72v4.09h-1.31v-8h1.31v1.26a2.49,2.49,0,0,1,2.38-1.41h.39Z"/><path class="cls-1" d="M283.2,53.78h1.49l-3.6,6.63V65h-1.38V60.41l-3.62-6.63h1.57l2.77,5.33Z"/><path class="cls-1" d="M292,61c0,2.4-1.47,4.15-3.68,4.15s-3.68-1.75-3.68-4.15,1.47-4.16,3.68-4.16S292,58.57,292,61Zm-1.36,0V61c0-1.61-.8-3-2.32-3S286,59.35,286,61v.09c0,1.57.8,3,2.32,3S290.64,62.62,290.64,61.05Z"/><path class="cls-1" d="M300.34,65H299v-.91a2.76,2.76,0,0,1-2.33,1.07A2.55,2.55,0,0,1,294,62.43V57h1.32v5c0,1.41.72,1.94,1.64,1.94a2,2,0,0,0,2-2.21V57h1.32Z"/><path class="cls-1" d="M307,58.17h-.2c-1.35,0-2.56.54-2.56,2.72V65h-1.32V57h1.32v1.27a2.47,2.47,0,0,1,2.38-1.41H307Z"/><path class="cls-1" d="M266.8,80l.8-.93A3.78,3.78,0,0,0,270,80c.92,0,1.61-.41,1.61-1.2s-.87-1-2-1.34-2.48-.69-2.48-2.34c0-1.34,1.23-2.32,2.91-2.32a4.32,4.32,0,0,1,2.77,1l-.76.88a3,3,0,0,0-2-.76c-1.06,0-1.59.46-1.59,1.18s.45.86,1.15,1.06c.42.11.9.25,1.32.38,1.07.34,1.95.9,1.95,2.18,0,1.65-1.46,2.4-3,2.4A4.81,4.81,0,0,1,266.8,80Z"/><path class="cls-1" d="M275.9,77.4a2.51,2.51,0,0,0,2.48,2.6,3.2,3.2,0,0,0,2.1-.79l.67,1a4.48,4.48,0,0,1-2.83,1c-2.32,0-3.8-1.75-3.8-4.15s1.43-4.16,3.64-4.16,3.41,1.75,3.41,4.15v.41Zm0-1.05h4.22c0-1.24-.73-2.36-2-2.36A2.32,2.32,0,0,0,275.92,76.35Z"/><path class="cls-1" d="M287.63,74.17h-.21c-1.34,0-2.56.54-2.56,2.72V81h-1.31V73h1.31v1.27a2.49,2.49,0,0,1,2.39-1.41h.38Z"/><path class="cls-1" d="M291,81l-2.53-8H290l1.92,6.77,1.9-6.77h1.49l-2.53,8Z"/><path class="cls-1" d="M297.73,69.78a1,1,0,1,1-1,1A1,1,0,0,1,297.73,69.78ZM298.37,81h-1.32V73h1.32Z"/><path class="cls-1" d="M301.81,77c0,1.59.78,3,2.32,3a2.29,2.29,0,0,0,2.06-1.35l1.09.63a3.39,3.39,0,0,1-3.15,1.87c-2.21,0-3.69-1.73-3.69-4.15s1.48-4.16,3.69-4.16a3.39,3.39,0,0,1,3.15,1.87l-1.09.63A2.29,2.29,0,0,0,304.13,74c-1.54,0-2.32,1.36-2.32,3Z"/><path class="cls-1" d="M310.08,77.4a2.51,2.51,0,0,0,2.48,2.6,3.24,3.24,0,0,0,2.1-.79l.67,1a4.51,4.51,0,0,1-2.84,1c-2.32,0-3.79-1.75-3.79-4.15s1.43-4.16,3.63-4.16,3.41,1.75,3.41,4.15v.41Zm0-1.05h4.23c-.05-1.24-.74-2.36-2-2.36A2.33,2.33,0,0,0,310.09,76.35Z"/><path class="cls-1" d="M180.36,381.21h1.49l-3.6,6.62v4.58h-1.38v-4.58l-3.62-6.62h1.57l2.77,5.33Z"/><path class="cls-1" d="M189.16,388.43c0,2.4-1.47,4.14-3.68,4.14s-3.68-1.74-3.68-4.14,1.47-4.17,3.68-4.17S189.16,386,189.16,388.43Zm-1.36,0v-.09c0-1.6-.8-3-2.32-3s-2.32,1.36-2.32,3v.09c0,1.57.8,2.95,2.32,2.95S187.8,390,187.8,388.47Z"/><path class="cls-1" d="M197.5,392.41h-1.31v-.91a2.75,2.75,0,0,1-2.34,1.07,2.54,2.54,0,0,1-2.67-2.72v-5.43h1.31v5c0,1.41.72,1.94,1.65,1.94a2,2,0,0,0,2.05-2.21v-4.74h1.31Z"/><path class="cls-1" d="M204.14,385.59h-.21c-1.35,0-2.56.55-2.56,2.72v4.1h-1.32v-8h1.32v1.27a2.49,2.49,0,0,1,2.38-1.41h.39Z"/><path class="cls-1" d="M179.23,407.5a2.81,2.81,0,0,1-2.34,1.07c-2.07,0-3.39-1.73-3.39-4.14s1.32-4.17,3.39-4.17a2.81,2.81,0,0,1,2.34,1.08v-4.13h1.31v11.2h-1.31Zm-4.37-3c0,1.66.8,2.94,2.27,2.94a2.07,2.07,0,0,0,2.11-2.33v-1.3a2.08,2.08,0,0,0-2.11-2.34c-1.47,0-2.27,1.28-2.27,2.95Z"/><path class="cls-1" d="M185.29,408.57a2.5,2.5,0,0,1-2.79-2.41,2.24,2.24,0,0,1,2.13-2.26l2.82-.39V403c0-1.21-.78-1.58-1.78-1.58a4.92,4.92,0,0,0-2.3.62l-.5-1a6,6,0,0,1,2.93-.74c1.94,0,3,.87,3,2.55v3.73a1.09,1.09,0,0,0,.66,1.09l-.74.94a1.59,1.59,0,0,1-1.07-1A2.94,2.94,0,0,1,185.29,408.57Zm0-3.71c-.88.13-1.45.41-1.45,1.23a1.47,1.47,0,0,0,1.63,1.44c1,0,2-.62,2-1.55v-1.44Z"/><path class="cls-1" d="M193.37,406.43c0,.53.09,1,1,1a6.76,6.76,0,0,0,1-.09l.14,1.15a12,12,0,0,1-1.43.11c-1.26,0-2-.49-2-1.86v-5.13h-1.51v-1.16h1.51v-2.6l1.31-.47v3.07h2.22v1.16h-2.22Z"/><path class="cls-1" d="M199.56,408.57a2.5,2.5,0,0,1-2.78-2.41,2.23,2.23,0,0,1,2.12-2.26l2.82-.39V403c0-1.21-.78-1.58-1.78-1.58a4.92,4.92,0,0,0-2.3.62l-.5-1a6.1,6.1,0,0,1,2.93-.74c1.94,0,3,.87,3,2.55v3.73a1.09,1.09,0,0,0,.66,1.09l-.74.94a1.59,1.59,0,0,1-1.07-1A2.94,2.94,0,0,1,199.56,408.57Zm0-3.71c-.88.13-1.46.41-1.46,1.23a1.47,1.47,0,0,0,1.63,1.44c1,0,2-.62,2-1.55v-1.44Z"/><path class="cls-1" d="M170.74,423.42l.8-.93a3.83,3.83,0,0,0,2.42,1c.91,0,1.6-.42,1.6-1.2s-.86-1.06-1.95-1.35-2.48-.69-2.48-2.33c0-1.35,1.23-2.33,2.91-2.33a4.27,4.27,0,0,1,2.77,1l-.77.88a2.93,2.93,0,0,0-2-.77c-1,0-1.58.46-1.58,1.18s.45.87,1.15,1.06c.42.11.9.26,1.31.38,1.08.34,2,.9,2,2.18,0,1.65-1.46,2.4-3,2.4A4.83,4.83,0,0,1,170.74,423.42Z"/><path class="cls-1" d="M181,422.43c0,.53.09,1,1,1a6.62,6.62,0,0,0,1-.09l.15,1.15a12,12,0,0,1-1.43.11c-1.26,0-2.05-.49-2.05-1.86v-5.13h-1.5v-1.16h1.5v-2.6l1.32-.47v3.07h2.22v1.16H181Z"/><path class="cls-1" d="M191.9,420.43c0,2.4-1.47,4.14-3.68,4.14s-3.68-1.74-3.68-4.14,1.47-4.17,3.68-4.17S191.9,418,191.9,420.43Zm-1.36,0v-.09c0-1.6-.8-3-2.32-3s-2.32,1.36-2.32,3v.09c0,1.57.8,2.95,2.32,2.95S190.54,422,190.54,420.47Z"/><path class="cls-1" d="M198.06,417.59h-.21c-1.35,0-2.56.55-2.56,2.72v4.1H194v-8h1.31v1.27a2.49,2.49,0,0,1,2.38-1.41h.39Z"/><path class="cls-1" d="M200.46,420.83a2.51,2.51,0,0,0,2.48,2.59,3.19,3.19,0,0,0,2.09-.79l.68.95a4.45,4.45,0,0,1-2.84,1c-2.32,0-3.79-1.74-3.79-4.14s1.42-4.17,3.63-4.17,3.41,1.75,3.41,4.15v.42Zm0-1.06h4.23c0-1.23-.74-2.35-2-2.35A2.32,2.32,0,0,0,200.47,419.77Z"/><path class="cls-1" d="M23,94.74V87.52h1.34v7.35a3.91,3.91,0,0,1-4.14,4,3.92,3.92,0,0,1-4.13-4V87.52h1.36v7.22a2.66,2.66,0,0,0,2.77,3A2.67,2.67,0,0,0,23,94.74Z"/><path class="cls-1" d="M26.18,97.73l.8-.93a3.78,3.78,0,0,0,2.41,1c.92,0,1.6-.42,1.6-1.2s-.86-1.06-1.95-1.35-2.48-.69-2.48-2.33c0-1.35,1.23-2.32,2.91-2.32a4.27,4.27,0,0,1,2.77,1l-.76.88a3,3,0,0,0-2-.77c-1.06,0-1.59.46-1.59,1.18s.45.87,1.15,1.06c.42.11.9.26,1.32.38,1.07.34,2,.9,2,2.18,0,1.65-1.46,2.4-3,2.4A4.81,4.81,0,0,1,26.18,97.73Z"/><path class="cls-1" d="M35.28,95.14a2.51,2.51,0,0,0,2.48,2.59,3.24,3.24,0,0,0,2.1-.78l.67.94a4.42,4.42,0,0,1-2.83,1c-2.32,0-3.8-1.74-3.8-4.14s1.43-4.16,3.64-4.16S41,92.32,41,94.72v.42Zm0-1.06h4.22c-.05-1.23-.73-2.35-2-2.35A2.31,2.31,0,0,0,35.3,94.08Z"/><path class="cls-1" d="M47,91.9H46.8c-1.34,0-2.56.55-2.56,2.72v4.1H42.93v-8h1.31V92a2.5,2.5,0,0,1,2.39-1.41H47Z"/><path class="cls-1" d="M326.33,329.06H328v11.2h-1.39v-9.51l-3.83,5.16h0L319,330.79v9.47h-1.4v-11.2h1.72l3.5,4.75Z"/><path class="cls-1" d="M333,340.42a2.5,2.5,0,0,1-2.79-2.42,2.23,2.23,0,0,1,2.13-2.25l2.82-.39v-.51c0-1.22-.79-1.58-1.78-1.58a4.81,4.81,0,0,0-2.3.62l-.5-1a6,6,0,0,1,2.93-.74c1.94,0,3,.87,3,2.55v3.73a1.09,1.09,0,0,0,.66,1.09l-.74.94a1.57,1.57,0,0,1-1.07-1A3,3,0,0,1,333,340.42Zm0-3.71c-.88.13-1.45.41-1.45,1.23a1.47,1.47,0,0,0,1.63,1.44c1,0,2-.62,2-1.55v-1.44Z"/><path class="cls-1" d="M341.08,338.28c0,.52.09,1,1,1a8.28,8.28,0,0,0,1-.09l.15,1.15a12,12,0,0,1-1.43.11c-1.26,0-2.05-.5-2.05-1.86v-5.13h-1.5v-1.16h1.5v-2.6l1.32-.47v3.07h2.22v1.16h-2.22Z"/><path class="cls-1" d="M346,336.31c0,1.6.78,3,2.32,3a2.26,2.26,0,0,0,2.06-1.35l1.09.63a3.39,3.39,0,0,1-3.15,1.87c-2.21,0-3.68-1.73-3.68-4.14s1.47-4.17,3.68-4.17a3.38,3.38,0,0,1,3.15,1.88l-1.09.62a2.27,2.27,0,0,0-2.06-1.34c-1.54,0-2.32,1.36-2.32,3Z"/><path class="cls-1" d="M353.41,329.06h1.31v4.13a2.76,2.76,0,0,1,2.34-1.08,2.54,2.54,0,0,1,2.67,2.72v5.43h-1.31v-5c0-1.41-.72-1.94-1.65-1.94a2,2,0,0,0-2,2.21v4.74h-1.31Z"/><path class="cls-1" d="M362.9,329.06a1,1,0,1,1-1,1A1,1,0,0,1,362.9,329.06Zm.64,11.2h-1.31v-8h1.31Z"/><path class="cls-1" d="M366.1,332.27h1.31v.92a2.76,2.76,0,0,1,2.34-1.08,2.54,2.54,0,0,1,2.67,2.72v5.43h-1.31v-5c0-1.41-.72-1.94-1.65-1.94a2.05,2.05,0,0,0-2,2.21v4.74H366.1Z"/><path class="cls-1" d="M377.7,332.11a2.69,2.69,0,0,1,2.26,1.08v-.92h1.31v8.06c0,2-1.74,2.56-3.43,2.56a7.05,7.05,0,0,1-3-.64l.45-1.09a6.49,6.49,0,0,0,2.55.56c1.34,0,2.08-.5,2.08-1.73v-1.52a2.71,2.71,0,0,1-2.26,1.07c-2,0-3.23-1.62-3.23-3.71S375.72,332.11,377.7,332.11Zm2.29,3.68c0-1.42-.61-2.51-2.05-2.51s-2.11,1.12-2.11,2.51v.07c0,1.39.65,2.51,2.11,2.51s2.05-1.09,2.05-2.51Z"/><path class="cls-1" d="M324.74,355.27l.8-.93a3.79,3.79,0,0,0,2.42,1c.91,0,1.6-.42,1.6-1.2s-.87-1.06-1.95-1.35-2.49-.69-2.49-2.34c0-1.34,1.24-2.32,2.92-2.32a4.32,4.32,0,0,1,2.77,1L330,350a2.91,2.91,0,0,0-2-.77c-1.06,0-1.59.46-1.59,1.18s.45.87,1.16,1.06l1.31.38c1.07.34,1.95.9,1.95,2.18,0,1.65-1.45,2.4-3,2.4A4.81,4.81,0,0,1,324.74,355.27Z"/><path class="cls-1" d="M333.84,352.68a2.51,2.51,0,0,0,2.49,2.59,3.19,3.19,0,0,0,2.09-.79l.67.95a4.48,4.48,0,0,1-2.83,1c-2.32,0-3.79-1.74-3.79-4.14s1.42-4.17,3.63-4.17,3.41,1.75,3.41,4.15v.42Zm0-1.06h4.23c0-1.23-.74-2.35-2-2.35A2.32,2.32,0,0,0,333.86,351.62Z"/><path class="cls-1" d="M345.57,349.44h-.2c-1.35,0-2.57.55-2.57,2.72v4.1h-1.31v-8h1.31v1.27a2.49,2.49,0,0,1,2.39-1.41h.38Z"/><path class="cls-1" d="M349,356.26l-2.53-8h1.49l1.92,6.77,1.91-6.77h1.48l-2.52,8Z"/><path class="cls-1" d="M355.67,345.06a1,1,0,1,1-1,1A1,1,0,0,1,355.67,345.06Zm.64,11.2H355v-8h1.31Z"/><path class="cls-1" d="M359.75,352.31c0,1.6.78,3,2.32,3a2.26,2.26,0,0,0,2.06-1.35l1.09.63a3.39,3.39,0,0,1-3.15,1.87c-2.21,0-3.68-1.73-3.68-4.14s1.47-4.17,3.68-4.17a3.38,3.38,0,0,1,3.15,1.88l-1.09.62a2.27,2.27,0,0,0-2.06-1.34c-1.54,0-2.32,1.36-2.32,3Z"/><path class="cls-1" d="M368,352.68a2.51,2.51,0,0,0,2.48,2.59,3.2,3.2,0,0,0,2.1-.79l.67.95a4.48,4.48,0,0,1-2.83,1c-2.32,0-3.8-1.74-3.8-4.14s1.43-4.17,3.64-4.17,3.41,1.75,3.41,4.15v.42Zm0-1.06h4.22c-.05-1.23-.73-2.35-2-2.35A2.31,2.31,0,0,0,368,351.62Z"/><line class="cls-2" x1="316.22" y1="106.83" x2="316.22" y2="150.36"/><polygon class="cls-1" points="311.24 148.9 316.22 157.53 321.21 148.9 311.24 148.9"/><line class="cls-2" x1="386.03" y1="157.53" x2="386.03" y2="113.01"/><polygon class="cls-1" points="391.02 114.47 386.03 105.83 381.05 114.47 391.02 114.47"/><line class="cls-2" x1="276.06" y1="386.19" x2="230.18" y2="386.19"/><polygon class="cls-1" points="231.63 381.21 223 386.19 231.63 391.18 231.63 381.21"/><line class="cls-2" x1="223" y1="407.55" x2="268.89" y2="407.55"/><polygon class="cls-1" points="267.43 412.53 276.06 407.55 267.43 402.56 267.43 412.53"/><line class="cls-2" x1="190.08" y1="105.95" x2="190.08" y2="332.97"/><polygon class="cls-1" points="185.09 331.51 190.08 340.14 195.06 331.51 185.09 331.51"/><line class="cls-3" x1="426.42" y1="321.22" x2="504.44" y2="321.22"/><polyline class="cls-3" points="368.19 157.53 368.19 89 504.44 89"/><polyline class="cls-3" points="336.7 157.53 336.7 49.77 504.32 49.77"/><line class="cls-3" x1="504.44" y1="283.94" x2="425.01" y2="283.94"/><line class="cls-3" x1="492.65" y1="49.69" x2="496.55" y2="49.69"/><polygon class="cls-1" points="495.09 54.68 503.73 49.69 495.09 44.71 495.09 54.68"/><polygon class="cls-1" points="363.48 148.83 368.46 157.47 373.45 148.83 363.48 148.83"/><line class="cls-3" x1="443.34" y1="321.22" x2="432.46" y2="321.22"/><polygon class="cls-1" points="433.92 316.23 425.28 321.21 433.92 326.2 433.92 316.23"/><circle class="cls-8" cx="315.82" cy="130.89" r="11.54"/><path class="cls-1" d="M311.58,136.06v-1.34c.83-.74,3.18-2.69,4-3.46a4.2,4.2,0,0,0,1.7-3.1,2,2,0,0,0-2.19-2.21c-1.41,0-2.1,1-2.2,2.35l-1.44-.11a3.66,3.66,0,0,1,7.32.05c0,1.64-.83,2.7-3.33,4.83l-2.05,1.75h5.52v1.24Z"/><circle class="cls-8" cx="386.63" cy="130.89" r="11.54"/><path class="cls-1" d="M389.37,126.11h-6v-1.25h7.35v1.25l-4.49,10h-1.6Z"/><circle class="cls-8" cx="190.08" cy="224.05" r="11.54"/><path class="cls-1" d="M193.64,220.59a2.52,2.52,0,0,1-1.89,2.53A2.89,2.89,0,0,1,194,226c0,2.05-2,3.12-4,3.12s-4-1.07-4-3.12a2.89,2.89,0,0,1,2.23-2.85,2.52,2.52,0,0,1-1.89-2.53c0-1.93,1.79-3,3.68-3S193.64,218.66,193.64,220.59Zm-1.1,5.27c0-1.36-1.22-2-2.58-2s-2.58.67-2.58,2,1.22,2,2.58,2S192.54,227.24,192.54,225.86Zm-.29-5.15a2.33,2.33,0,0,0-4.58,0c0,1.18,1,1.87,2.29,1.87S192.25,221.89,192.25,220.71Z"/><circle class="cls-3" cx="27.97" cy="446.14" r="11.54"/><path class="cls-1" d="M28.32,439.94v-.12h1.34V451H28.27v-8.2H26.2v-1.2h.21C27.88,441.63,28.32,441.12,28.32,439.94Z"/><circle class="cls-5" cx="471.33" cy="283.94" r="11.54"/><path class="cls-1" d="M467.28,283.09l.61-5.51,6.4,0v1.2H469l-.35,3.18a3.55,3.55,0,0,1,2.39-.87,3.65,3.65,0,0,1,3.69,3.81,3.86,3.86,0,0,1-4,4,3.63,3.63,0,0,1-3.78-2.69l1.44-.19a2.27,2.27,0,0,0,2.34,1.68,2.53,2.53,0,0,0,2.57-2.75,2.46,2.46,0,0,0-2.56-2.71,2.87,2.87,0,0,0-2.13,1Z"/><circle class="cls-5" cx="471.33" cy="319.42" r="11.54"/><path class="cls-1" d="M472.46,324v-2.88l-5.61,0v-1.38l5.08-6.93h1.95l0,7.15h1.84v1.17h-1.84V324Zm0-4.05,0-6-4.34,6Z"/><circle class="cls-5" cx="471.33" cy="49.69" r="11.54"/><path class="cls-1" d="M469.14,51.68a2.52,2.52,0,0,0,2.59,1.83c1.63,0,2.39-.93,2.39-2.07s-.92-1.95-2.62-2H471v-1.2h.27c1.46,0,2.66-.5,2.67-1.93a2,2,0,0,0-2.17-1.94,2.55,2.55,0,0,0-2.47,1.69L468,45.61a3.76,3.76,0,0,1,3.76-2.4c1.95,0,3.58,1.26,3.57,3a2.5,2.5,0,0,1-2.09,2.57,2.62,2.62,0,0,1,2.28,2.73c0,2.18-1.83,3.21-3.88,3.21a3.9,3.9,0,0,1-3.93-2.61Z"/><circle class="cls-5" cx="471.33" cy="90.18" r="11.54"/><path class="cls-1" d="M467.31,89.51c0-3,1.22-6.07,4.47-6.06a3.62,3.62,0,0,1,3.32,1.8l-1.37.43a2.21,2.21,0,0,0-2-1.08c-2.11,0-3,2.2-3.06,4.45l0,0a3.32,3.32,0,0,1,3-1.59,3.54,3.54,0,0,1,3.64,3.66A3.74,3.74,0,0,1,471.49,95c-2.37,0-4.19-1.82-4.18-5.16Zm4.13,4.28a2.57,2.57,0,0,0,0-5.14,2.38,2.38,0,0,0-2.5,2.52A2.46,2.46,0,0,0,471.44,93.79Z"/><path class="cls-1" d="M30.77,80.21H17.13a1.46,1.46,0,0,1-1.61-1.15,2.15,2.15,0,0,1,.11-1.12,16.12,16.12,0,0,1,10-9.66,1.45,1.45,0,0,1,1.1,0,10,10,0,0,0,8.11,0,1.45,1.45,0,0,1,1.12,0,16.15,16.15,0,0,1,10,9.82,1.53,1.53,0,0,1-1.36,2.09H30.77Z"/><path class="cls-1" d="M30.69,66.8a8.52,8.52,0,1,1,8.62-8.54A8.49,8.49,0,0,1,30.69,66.8Z"/><line class="cls-2" x1="55.97" y1="68.56" x2="145.94" y2="68.56"/><polygon class="cls-1" points="144.49 73.54 153.12 68.56 144.49 63.57 144.49 73.54"/><circle class="cls-5" cx="101.08" cy="68.56" r="11.54"/><path class="cls-1" d="M101.41,62.64v-.11h1.35v11.2h-1.4V65.54H99.3v-1.2h.21C101,64.34,101.41,63.83,101.41,62.64Z"/><polygon class="cls-1" points="494.59 288.92 503.22 283.94 494.59 278.95 494.59 288.92"/></svg>