<svg id="Layer_1" data-name="Layer 1" xmlns="http://www.w3.org/2000/svg" viewBox="0 0 630 473"><defs><style>.cls-1{fill:#1d1d1b;}.cls-2{fill:#fff;}.cls-2,.cls-3{stroke:#1d1d1b;stroke-miterlimit:10;}.cls-3{fill:none;}</style></defs><title>verify-build</title><path class="cls-1" d="M16,383.83h2.27v4.85l4-4.85h2.79l-3.89,4.45L25.32,395H22.68l-3-5-1.44,1.62V395H16Z"/><path class="cls-1" d="M27.66,391.59a2,2,0,0,0,2,1.64,3,3,0,0,0,2.11-.79l1.07,1.63a5,5,0,0,1-3.25,1.13,4.08,4.08,0,0,1-4.21-4.29v-.1a4.05,4.05,0,0,1,4.05-4.31,3.84,3.84,0,0,1,3.85,4.12v1Zm0-1.63h3.38a1.61,1.61,0,0,0-1.65-1.58A1.67,1.67,0,0,0,27.67,390Z"/><path class="cls-1" d="M36.55,395.37l.07-.27h-.16l-2.58-8.44h2.4l1.54,5.8,1.5-5.8h2.37l-2.88,9.61c-.37,1.25-1.35,1.58-2.61,1.58a13.63,13.63,0,0,1-2-.16l.45-1.9a8.24,8.24,0,0,0,1.15.09A.63.63,0,0,0,36.55,395.37Z"/><path class="cls-1" d="M16.58,422a4.11,4.11,0,0,0,3.17,1.47c1.36,0,2.55-.69,2.55-2a1.6,1.6,0,0,0-1.06-1.56c-1.12-.53-2.86-.57-4.06-1.3a2.57,2.57,0,0,1-1.32-2.34c0-1.73,1.44-3.1,3.83-3.1a5.07,5.07,0,0,1,3.7,1.52l-1,.81a3.69,3.69,0,0,0-2.69-1.15c-1.36,0-2.43.67-2.43,1.87,0,1.83,2.64,1.62,4.57,2.47a2.75,2.75,0,0,1,1.88,2.66c0,2.22-2,3.33-4.07,3.33a5.41,5.41,0,0,1-4.1-1.75Z"/><path class="cls-1" d="M27.56,422.52c0,.53.1,1,1,1a6.78,6.78,0,0,0,1-.1l.14,1.15a10.94,10.94,0,0,1-1.42.12c-1.27,0-2.05-.5-2.05-1.86v-5.14H24.74v-1.15h1.51v-2.61l1.31-.47v3.08h2.22v1.15H27.56Z"/><path class="cls-1" d="M32.46,420.92a2.51,2.51,0,0,0,2.48,2.59,3.18,3.18,0,0,0,2.09-.78l.68.94a4.48,4.48,0,0,1-2.84,1c-2.32,0-3.79-1.75-3.79-4.15s1.42-4.16,3.63-4.16,3.41,1.74,3.41,4.14v.42Zm0-1.06H36.7c-.05-1.23-.74-2.35-2-2.35A2.33,2.33,0,0,0,32.47,419.86Z"/><path class="cls-1" d="M41.42,416.52v.91a2.77,2.77,0,0,1,2.33-1.07c2.07,0,3.4,1.74,3.4,4.16s-1.33,4.15-3.4,4.15a2.78,2.78,0,0,1-2.33-1.08v3.35H40.1V416.52Zm4.37,4c0-1.66-.81-2.94-2.28-2.94a2.08,2.08,0,0,0-2.11,2.33v1.3a2.08,2.08,0,0,0,2.11,2.34c1.47,0,2.28-1.28,2.28-2.95Z"/><rect id="service_background" data-name="service background" class="cls-2" x="138.54" y="15" width="301.82" height="443"/><rect id="verify" class="cls-2" x="504.44" y="15.48" width="109.8" height="442.04"/><path class="cls-1" d="M536.55,228.33v-.56h-3.14v-1.15h4.37v5.92h-1.24V231a3.4,3.4,0,0,1-3.11,1.66c-3.06,0-4.8-2.53-4.8-5.75s1.86-5.76,4.88-5.76a4.63,4.63,0,0,1,4.13,2.32l-1.17.61a3.11,3.11,0,0,0-3-1.73c-2.34,0-3.43,2.13-3.43,4.45v.21c0,2.32,1.11,4.45,3.45,4.45A2.9,2.9,0,0,0,536.55,228.33Z"/><path class="cls-1" d="M544.81,221.19c3,0,4.89,2.55,4.89,5.76s-1.87,5.75-4.89,5.75-4.9-2.53-4.9-5.75S541.78,221.19,544.81,221.19Zm3.44,5.65c0-2.32-1-4.45-3.44-4.45s-3.44,2.13-3.44,4.45v.21c0,2.32,1,4.45,3.44,4.45s3.44-2.13,3.44-4.45Z"/><path class="cls-1" d="M554.33,232.54l-3.3-11.2h1.47l2.74,9.92,2.75-9.92h1.47l-3.28,11.2Z"/><path class="cls-1" d="M561.41,230.56a1.07,1.07,0,1,1-1.07,1.07A1.08,1.08,0,0,1,561.41,230.56Z"/><path class="cls-1" d="M571.82,228.56v-7.22h1.34v7.34a4.14,4.14,0,0,1-8.28,0v-7.34h1.37v7.22a2.79,2.79,0,1,0,5.57,0Z"/><path class="cls-1" d="M576.28,221.34h1.37v6l4.85-6h1.68l-3.66,4.41,4,6.79h-1.61l-3.35-5.78-1.94,2.4v3.38h-1.37Z"/><path class="cls-1" d="M540.27,248.54l-3.3-11.2h1.48l2.73,9.92,2.76-9.92h1.47l-3.28,11.2Z"/><path class="cls-1" d="M547.45,245a2.51,2.51,0,0,0,2.48,2.59,3.2,3.2,0,0,0,2.1-.79l.67,1a4.48,4.48,0,0,1-2.83,1c-2.32,0-3.79-1.74-3.79-4.14s1.42-4.17,3.63-4.17,3.41,1.75,3.41,4.15V245Zm0-1.06h4.22a2.15,2.15,0,0,0-2-2.35A2.32,2.32,0,0,0,547.47,243.9Z"/><path class="cls-1" d="M559.18,241.72H559c-1.34,0-2.56.55-2.56,2.72v4.1H555.1v-8h1.31v1.27a2.49,2.49,0,0,1,2.39-1.41h.38Z"/><path class="cls-1" d="M561.55,237.34a1,1,0,1,1-1,1A1,1,0,0,1,561.55,237.34Zm.64,11.2h-1.31v-8h1.31Z"/><path class="cls-1" d="M566.62,240.55h1.59v1.16h-1.59v6.83h-1.31v-6.83H564v-1.16h1.33v-1.49c0-1.37.93-1.87,2.19-1.87a7.75,7.75,0,0,1,1.28.11l-.09,1.12c-.31,0-.88-.06-1.14-.06a.84.84,0,0,0-.93,1Z"/><path class="cls-1" d="M569.13,240.55h1.49l2,6.6,1.87-6.6h1.47L573,249.74a1.92,1.92,0,0,1-2.11,1.41,9.6,9.6,0,0,1-1.43-.13l.2-1.15a6.1,6.1,0,0,0,1.05.11.9.9,0,0,0,1-.8l.08-.37Z"/><path class="cls-1" d="M283.2,225.3h1.49l-3.6,6.62v4.58h-1.38v-4.58l-3.62-6.62h1.57l2.77,5.33Z"/><path class="cls-1" d="M292,232.51c0,2.41-1.47,4.15-3.68,4.15s-3.68-1.74-3.68-4.15,1.47-4.16,3.68-4.16S292,230.08,292,232.51Zm-1.36.05v-.09c0-1.6-.8-3-2.32-3s-2.32,1.36-2.32,3v.09c0,1.57.8,2.95,2.32,2.95S290.64,234.13,290.64,232.56Z"/><path class="cls-1" d="M300.34,236.5H299v-.91a2.76,2.76,0,0,1-2.33,1.07,2.55,2.55,0,0,1-2.68-2.72v-5.43h1.32v5c0,1.41.72,1.94,1.64,1.94a2,2,0,0,0,2-2.21v-4.74h1.32Z"/><path class="cls-1" d="M307,229.68h-.2c-1.35,0-2.56.55-2.56,2.72v4.1h-1.32v-8h1.32v1.27a2.47,2.47,0,0,1,2.38-1.41H307Z"/><path class="cls-1" d="M266.8,251.51l.8-.93a3.78,3.78,0,0,0,2.41,1c.92,0,1.61-.42,1.61-1.21s-.87-1-2-1.34-2.48-.69-2.48-2.34c0-1.34,1.23-2.32,2.91-2.32a4.27,4.27,0,0,1,2.77,1l-.76.88a2.91,2.91,0,0,0-2-.77c-1.06,0-1.59.46-1.59,1.18s.45.87,1.15,1.06c.42.11.9.25,1.32.38,1.07.34,1.95.9,1.95,2.18,0,1.65-1.46,2.4-3,2.4A4.81,4.81,0,0,1,266.8,251.51Z"/><path class="cls-1" d="M275.9,248.91a2.51,2.51,0,0,0,2.48,2.6,3.2,3.2,0,0,0,2.1-.79l.67.95a4.48,4.48,0,0,1-2.83,1c-2.32,0-3.8-1.74-3.8-4.15s1.43-4.16,3.64-4.16,3.41,1.75,3.41,4.15v.41Zm0-1h4.22a2.15,2.15,0,0,0-2-2.35A2.31,2.31,0,0,0,275.92,247.86Z"/><path class="cls-1" d="M287.63,245.68h-.21c-1.34,0-2.56.55-2.56,2.72v4.1h-1.31v-8h1.31v1.27a2.49,2.49,0,0,1,2.39-1.41h.38Z"/><path class="cls-1" d="M291,252.5l-2.53-8H290l1.92,6.77,1.9-6.77h1.49l-2.53,8Z"/><path class="cls-1" d="M297.73,241.3a1,1,0,1,1-1,1A1,1,0,0,1,297.73,241.3Zm.64,11.2h-1.32v-8h1.32Z"/><path class="cls-1" d="M301.81,248.55c0,1.6.78,3,2.32,3a2.28,2.28,0,0,0,2.06-1.35l1.09.63a3.39,3.39,0,0,1-3.15,1.87c-2.21,0-3.69-1.73-3.69-4.15s1.48-4.16,3.69-4.16a3.38,3.38,0,0,1,3.15,1.88l-1.09.62a2.28,2.28,0,0,0-2.06-1.34c-1.54,0-2.32,1.36-2.32,3Z"/><path class="cls-1" d="M310.08,248.91a2.51,2.51,0,0,0,2.48,2.6,3.24,3.24,0,0,0,2.1-.79l.67.95a4.51,4.51,0,0,1-2.84,1c-2.32,0-3.79-1.74-3.79-4.15s1.43-4.16,3.63-4.16,3.41,1.75,3.41,4.15v.41Zm0-1h4.23c-.05-1.23-.74-2.35-2-2.35A2.32,2.32,0,0,0,310.09,247.86Z"/><path class="cls-1" d="M23,94.74V87.52h1.34v7.35a3.91,3.91,0,0,1-4.14,4,3.92,3.92,0,0,1-4.13-4V87.52h1.36v7.22a2.66,2.66,0,0,0,2.77,3A2.67,2.67,0,0,0,23,94.74Z"/><path class="cls-1" d="M26.18,97.73l.8-.93a3.78,3.78,0,0,0,2.41,1c.92,0,1.6-.42,1.6-1.2s-.86-1.06-1.95-1.35-2.48-.68-2.48-2.33c0-1.35,1.23-2.32,2.91-2.32a4.27,4.27,0,0,1,2.77,1l-.76.88a3,3,0,0,0-2-.77c-1.06,0-1.59.46-1.59,1.18s.45.87,1.15,1.06c.42.11.9.26,1.32.39,1.07.33,2,.89,2,2.17,0,1.65-1.46,2.4-3,2.4A4.76,4.76,0,0,1,26.18,97.73Z"/><path class="cls-1" d="M35.28,95.14a2.51,2.51,0,0,0,2.48,2.59,3.24,3.24,0,0,0,2.1-.78l.67.94a4.42,4.42,0,0,1-2.83,1c-2.32,0-3.8-1.74-3.8-4.14s1.43-4.16,3.64-4.16S41,92.32,41,94.72v.42Zm0-1.06h4.22a2.15,2.15,0,0,0-2-2.35A2.31,2.31,0,0,0,35.3,94.08Z"/><path class="cls-1" d="M47,91.9H46.8c-1.34,0-2.56.55-2.56,2.73v4.09H42.93v-8h1.31V92a2.5,2.5,0,0,1,2.39-1.41H47Z"/><circle class="cls-3" cx="27.97" cy="446.14" r="11.54"/><path class="cls-1" d="M28.32,439.94v-.12h1.34V451H28.27v-8.2H26.2v-1.2h.21C27.88,441.63,28.32,441.12,28.32,439.94Z"/><path class="cls-1" d="M30.77,80.21H17.13a1.46,1.46,0,0,1-1.61-1.15,2.15,2.15,0,0,1,.11-1.12,16.12,16.12,0,0,1,10-9.66,1.45,1.45,0,0,1,1.1,0,10,10,0,0,0,8.11,0,1.45,1.45,0,0,1,1.12,0,16.15,16.15,0,0,1,10,9.82,1.53,1.53,0,0,1-1.36,2.09H30.77Z"/><path class="cls-1" d="M30.69,66.8a8.52,8.52,0,1,1,8.62-8.54A8.49,8.49,0,0,1,30.69,66.8Z"/><line class="cls-3" x1="55.97" y1="68.56" x2="131.36" y2="68.56"/><polygon class="cls-1" points="129.9 73.54 138.54 68.56 129.9 63.57 129.9 73.54"/><circle class="cls-2" cx="101.08" cy="68.56" r="11.54"/><path class="cls-1" d="M101.41,62.64v-.11h1.35v11.2h-1.4V65.54H99.3v-1.2h.21C101,64.34,101.41,63.83,101.41,62.64Z"/><line class="cls-3" x1="439.97" y1="68.56" x2="497.32" y2="68.56"/><polygon class="cls-1" points="495.87 73.54 504.5 68.56 495.87 63.57 495.87 73.54"/><circle class="cls-2" cx="472.08" cy="68.56" r="11.54"/><path class="cls-1" d="M468.83,73.73V72.39c.84-.74,3.19-2.69,4-3.46a4.24,4.24,0,0,0,1.69-3.1,2,2,0,0,0-2.19-2.21c-1.41,0-2.1,1-2.19,2.35l-1.44-.11a3.66,3.66,0,0,1,7.31,0c0,1.64-.83,2.7-3.33,4.83l-2.05,1.74h5.53v1.25Z"/><line class="cls-3" x1="504.5" y1="133.56" x2="447.14" y2="133.56"/><polygon class="cls-1" points="448.6 128.57 439.97 133.56 448.6 138.54 448.6 128.57"/><circle class="cls-2" cx="472.08" cy="133.56" r="11.54"/><path class="cls-1" d="M469.92,135.87a2.55,2.55,0,0,0,2.6,1.82c1.63,0,2.38-.94,2.38-2.08s-.93-2-2.62-2h-.5v-1.2h.27c1.46,0,2.66-.51,2.66-1.94a2,2,0,0,0-2.18-1.93,2.57,2.57,0,0,0-2.46,1.69l-1.27-.48a3.77,3.77,0,0,1,3.75-2.42c1.95,0,3.58,1.25,3.58,3a2.53,2.53,0,0,1-2.08,2.58,2.62,2.62,0,0,1,2.29,2.72c0,2.17-1.82,3.21-3.87,3.21a3.89,3.89,0,0,1-3.94-2.59Z"/><polyline class="cls-3" points="138.52 133.56 29.38 133.56 29.34 115.45"/><polygon class="cls-1" points="34.33 116.89 29.32 108.27 24.36 116.92 34.33 116.89"/><circle class="cls-2" cx="102.1" cy="133.56" r="11.54"/><path class="cls-1" d="M102.69,138.73v-2.88H97.07v-1.37l5.06-6.95h2v7.15h1.84v1.17h-1.84v2.88Zm0-4v-6l-4.32,6Z"/></svg>